<svg width="100" height="100" viewBox="0 0 100 100" fill="none" xmlns="http://www.w3.org/2000/svg">
<path d="M50 10C28.05 10 10 28.05 10 50C10 71.95 28.05 90 50 90C71.95 90 90 71.95 90 50C90 28.05 71.95 10 50 10ZM50 25C62.4264 25 72.5 35.0736 72.5 47.5C72.5 59.9264 62.4264 70 50 70C37.5736 70 27.5 59.9264 27.5 47.5C27.5 35.0736 37.5736 25 50 25ZM50 35C43.0964 35 37.5 40.5964 37.5 47.5C37.5 54.4036 43.0964 60 50 60C56.9036 60 62.5 54.4036 62.5 47.5C62.5 40.5964 56.9036 35 50 35Z" fill="#0052CC"/>
</svg>
