<svg width="100" height="100" viewBox="0 0 100 100" fill="none" xmlns="http://www.w3.org/2000/svg">
<rect width="100" height="100" fill="white"/>
<path d="M50 10C26.1929 10 10 26.1929 10 50C10 73.8071 26.1929 90 50 90C73.8071 90 90 73.8071 90 50C90 26.1929 73.8071 10 50 10Z" fill="#0052CC"/>
<path d="M50 25C34.1929 25 21 38.1929 21 50C21 61.8071 34.1929 75 50 75C65.8071 75 79 61.8071 79 50C79 38.1929 65.8071 25 50 25Z" fill="white"/>
<path d="M50 35C40.6118 35 33 42.6118 33 50C33 57.3882 40.6118 65 50 65C59.3882 65 67 57.3882 67 50C67 42.6118 59.3882 35 50 35Z" fill="#0052CC"/>
</svg>
